<svg xmlns="http://www.w3.org/2000/svg" width="32" height="32" viewBox="0 0 32 32"><g transform="translate(-271 -138)"><rect width="32" height="32" transform="translate(271 138)" fill="#fff"/><g transform="translate(275.001 141.999)"><path d="M11.992,24a.5.5,0,0,1-.231-.057l-11.492-6A.5.5,0,0,1,0,17.5V6.25A.5.5,0,0,1,.723,5.8l11.492,5.75a.5.5,0,0,1,.276.447V23.5a.5.5,0,0,1-.241.428A.493.493,0,0,1,11.992,24ZM1,17.2l10.492,5.478V12.309L1,7.059Z" fill="#838383"/><path d="M12.008,24a.5.5,0,0,1-.5-.5V12a.5.5,0,0,1,.276-.447L23.276,5.8A.5.5,0,0,1,24,6.25V17.5a.5.5,0,0,1-.269.443l-11.492,6a.5.5,0,0,1-.231.057Zm.5-11.691V22.675L23,17.2V7.059ZM23.5,17.5h.01Z" fill="#838383"/><path d="M.5,6.75A.5.5,0,0,1,.276,5.8L11.784.053a.5.5,0,0,1,.447,0L23.723,5.8a.5.5,0,1,1-.447.895L12.008,1.059.724,6.7A.5.5,0,0,1,.5,6.75Z" fill="#838383"/><path d="M18,15a.5.5,0,0,1-.5-.5V9.309L6.284,3.7A.5.5,0,0,1,6.732,2.8l11.492,5.75A.5.5,0,0,1,18.5,9v5.5a.5.5,0,0,1-.5.5Z" fill="#838383"/></g></g></svg>