<svg xmlns="http://www.w3.org/2000/svg" width="32" height="32"><path fill="none" d="M0 0h32v32H0z"/><g fill="#fff"><path d="M16.083 26.652c-.355-.515-.803-1.135-1.297-1.82C12.061 21.056 7.5 14.736 7.5 10.972c0-2.263.884-4.39 2.489-5.99A8.46 8.46 0 0116 2.5c2.271 0 4.406.881 6.011 2.482a8.402 8.402 0 012.489 5.99c0 1.618-.808 3.823-2.47 6.739-1.428 2.504-3.169 4.973-4.568 6.957-.529.749-1.007 1.427-1.38 1.984zM16 5.345c-2.757 0-5 2.236-5 4.985 0 2.75 2.243 4.986 5 4.986s5-2.237 5-4.986c0-2.749-2.243-4.985-5-4.985z"/><path d="M16.077 25.772c.293-.423.623-.892.976-1.392 1.393-1.975 3.127-4.433 4.542-6.917C23.191 14.663 24 12.48 24 10.971c0-2.128-.832-4.13-2.342-5.635A7.962 7.962 0 0016 3c-2.137 0-4.147.83-5.658 2.336A7.905 7.905 0 008 10.97c0 1.524.847 3.748 2.519 6.61 1.475 2.528 3.323 5.088 4.673 6.959.318.44.617.855.885 1.232M16 4.845c3.033 0 5.5 2.46 5.5 5.485 0 3.025-2.467 5.486-5.5 5.486-3.032 0-5.5-2.461-5.5-5.486 0-3.024 2.468-5.485 5.5-5.485m.09 22.719v-.001c-.37-.583-.991-1.443-1.71-2.439C11.62 21.3 7 14.897 7 10.971c0-2.396.936-4.65 2.636-6.343A8.956 8.956 0 0116 2c2.404 0 4.664.933 6.364 2.628A8.899 8.899 0 0125 10.97c0 1.708-.83 3.994-2.536 6.987-1.44 2.526-3.188 5.006-4.594 6.999-.751 1.064-1.4 1.984-1.78 2.606zM16 5.845c-2.481 0-4.5 2.012-4.5 4.485 0 2.474 2.019 4.486 4.5 4.486s4.5-2.012 4.5-4.486c0-2.473-2.019-4.485-4.5-4.485z" fill="#838383"/></g></svg>